<svg width="41" height="83" viewBox="0 0 41 83" fill="none" xmlns="http://www.w3.org/2000/svg">
<path d="M22.1529 75.235C21.359 76.4002 19.641 76.4002 18.8471 75.235L7.47426 58.5414C6.56975 57.2138 7.52063 55.4154 9.12713 55.4154H31.8729C33.4794 55.4154 34.4303 57.2138 33.5257 58.5414L22.1529 75.235Z" fill="url(#paint0_linear_82_2)" fill-opacity="0.5"/>
<path d="M22.1529 77.8621C21.359 79.0273 19.641 79.0273 18.8471 77.8621L7.47426 61.1685C6.56975 59.8408 7.52063 58.0424 9.12713 58.0424H31.8729C33.4794 58.0424 34.4303 59.8408 33.5257 61.1685L22.1529 77.8621Z" fill="url(#paint1_linear_82_2)" fill-opacity="0.5"/>
<path d="M22.1529 80.5738C21.359 81.7391 19.641 81.7391 18.8471 80.5738L7.47426 63.8803C6.56975 62.5526 7.52063 60.7542 9.12713 60.7542H31.8729C33.4794 60.7542 34.4303 62.5526 33.5257 63.8803L22.1529 80.5738Z" fill="url(#paint2_linear_82_2)" fill-opacity="0.5"/>
<path d="M0.5 0.999999C0.5 0.723857 0.723857 0.5 1 0.5H24.5858C24.7184 0.5 24.8456 0.552678 24.9393 0.646446L32.601 8.3081L40.2626 15.9698C40.3564 16.0635 40.4091 16.1907 40.4091 16.3233V49C40.4091 49.2761 40.1852 49.5 39.9091 49.5H1C0.723858 49.5 0.5 49.2761 0.5 49V0.999999Z" fill="#2400FF" fill-opacity="0.2" stroke="#2400FF"/>
<defs>
<linearGradient id="paint0_linear_82_2" x1="20.5" y1="55.534" x2="20.5" y2="76.9493" gradientUnits="userSpaceOnUse">
<stop stop-color="#2400FF"/>
<stop offset="1" stop-color="#2400FF" stop-opacity="0"/>
</linearGradient>
<linearGradient id="paint1_linear_82_2" x1="20.5" y1="58.1611" x2="20.5" y2="79.5763" gradientUnits="userSpaceOnUse">
<stop stop-color="#2400FF"/>
<stop offset="1" stop-color="#2400FF" stop-opacity="0"/>
</linearGradient>
<linearGradient id="paint2_linear_82_2" x1="20.5" y1="60.8729" x2="20.5" y2="82.2881" gradientUnits="userSpaceOnUse">
<stop stop-color="#2400FF"/>
<stop offset="1" stop-color="#2400FF" stop-opacity="0"/>
</linearGradient>
</defs>
</svg>
